<svg width="220" height="139" viewBox="0 0 220 139" fill="none" xmlns="http://www.w3.org/2000/svg">
<mask id="mask0_9_265" style="mask-type:luminance" maskUnits="userSpaceOnUse" x="13" y="31" width="90" height="76">
<path d="M13.562 31.8723H102.393V106.927H13.562V31.8723Z" fill="white"/>
</mask>
<g mask="url(#mask0_9_265)">
<mask id="mask1_9_265" style="mask-type:luminance" maskUnits="userSpaceOnUse" x="13" y="31" width="90" height="76">
<path d="M34.1343 41.5157C30.9458 41.5157 27.7784 42.889 25.6893 45.5316C23.9652 47.6934 23.233 50.3991 23.5981 53.1029C23.9652 55.8086 25.4297 58.221 27.6707 59.8856L75.2893 95.0444C77.5303 96.709 80.3326 97.4385 83.1329 97.0636C85.9331 96.6887 88.4337 95.3154 90.1577 93.1312C93.7113 88.6365 92.8292 82.2083 88.1741 78.7751L40.5556 43.6164C38.6395 42.2023 36.3753 41.5157 34.1343 41.5157ZM81.7106 106.717C77.2286 106.717 72.8984 105.301 69.3006 102.638L21.6588 67.4793C17.3076 64.2764 14.5053 59.6147 13.7941 54.3722C13.083 49.1298 14.5053 43.9281 17.8246 39.7268C24.6975 31.0512 37.6034 29.3866 46.5886 36.0227L94.2072 71.1835C103.192 77.8195 104.916 90.2808 98.0435 98.9564C94.7241 103.16 89.8981 105.863 84.4686 106.55C83.5423 106.674 82.637 106.717 81.7106 106.717Z" fill="white"/>
</mask>
<g mask="url(#mask1_9_265)">
<path d="M2.82751 20.982H216.738V117.116H2.82751V20.982Z" fill="white"/>
</g>
</g>
<mask id="mask2_9_265" style="mask-type:luminance" maskUnits="userSpaceOnUse" x="64" y="31" width="90" height="76">
<path d="M64.2783 31.4954H153.343V106.601H64.2783V31.4954Z" fill="white"/>
</mask>
<g mask="url(#mask2_9_265)">
<mask id="mask3_9_265" style="mask-type:luminance" maskUnits="userSpaceOnUse" x="64" y="31" width="89" height="76">
<path d="M84.8358 41.2447C81.6452 41.2447 78.4778 42.618 76.3887 45.2606C74.6647 47.4244 73.9325 50.1281 74.2975 52.8339C74.6647 55.5377 76.1292 57.95 78.3702 59.6147L125.989 94.7755C128.23 96.4381 131.009 97.1675 133.832 96.7926C136.656 96.4177 139.133 95.0444 140.857 92.8602C144.413 88.3676 143.529 81.9393 138.874 78.5062L91.255 43.3454C89.339 41.9314 87.0768 41.2447 84.8358 41.2447ZM132.41 106.446C127.928 106.446 123.598 105.032 120 102.369L72.3815 67.2084C68.0282 64.0054 65.2279 59.3457 64.5168 54.1012C63.8057 48.8588 65.2279 43.6591 68.5451 39.4558C75.418 30.7802 88.3261 29.1156 97.3113 35.7517L144.93 70.9125C153.915 77.5486 155.637 90.0098 148.764 98.6854C145.447 102.889 140.619 105.592 135.189 106.279C134.263 106.403 133.358 106.446 132.431 106.446" fill="white"/>
</mask>
<g mask="url(#mask3_9_265)">
<path d="M2.82751 20.982H216.738V117.116H2.82751V20.982Z" fill="white"/>
</g>
</g>
<mask id="mask4_9_265" style="mask-type:luminance" maskUnits="userSpaceOnUse" x="117" y="31" width="89" height="76">
<path d="M117.172 31.2957H205.876V106.226H117.172V31.2957Z" fill="white"/>
</mask>
<g mask="url(#mask4_9_265)">
<mask id="mask5_9_265" style="mask-type:luminance" maskUnits="userSpaceOnUse" x="117" y="31" width="89" height="76">
<path d="M197.805 70.6211L183.282 59.8856C182.744 61.4667 181.214 62.5894 179.404 62.5894H170.634L191.793 78.2148C196.448 81.648 197.33 88.0762 193.776 92.5689C192.052 94.7531 189.552 96.1487 186.752 96.5012C183.949 96.8557 181.149 96.1487 178.908 94.4841L131.289 59.3233C129.048 57.6587 127.605 55.2463 127.217 52.5426C126.831 49.8368 127.584 47.1331 129.308 44.9692C131.032 42.8054 133.53 41.4118 136.333 41.0369C136.806 40.9737 137.28 40.9534 137.753 40.9534C140.059 40.9534 142.3 41.6828 144.174 43.054L149.863 47.2573V35.2321C145.575 32.1739 140.319 30.8638 135.018 31.5504C129.589 32.2574 124.761 34.9611 121.443 39.1441C118.124 43.325 116.681 48.5471 117.413 53.7895C118.147 59.0319 120.926 63.6937 125.278 66.8966L172.896 102.055C176.517 104.718 180.847 106.134 185.308 106.134C186.235 106.134 187.14 106.071 188.066 105.967C193.496 105.26 198.322 102.577 201.641 98.3737C208.514 89.6981 206.79 77.2368 197.805 70.6008" fill="white"/>
</mask>
<g mask="url(#mask5_9_265)">
<path d="M2.82739 20.982H216.737V117.116H2.82739V20.982Z" fill="#F5F5F4"/>
</g>
</g>
<mask id="mask6_9_265" style="mask-type:luminance" maskUnits="userSpaceOnUse" x="155" y="35" width="23" height="23">
<path d="M155.637 35.6274H177.785V57.0311H155.637V35.6274Z" fill="white"/>
</mask>
<g mask="url(#mask6_9_265)">
<mask id="mask7_9_265" style="mask-type:luminance" maskUnits="userSpaceOnUse" x="155" y="35" width="23" height="22">
<path d="M173.607 56.9945H159.754C157.492 56.9945 155.66 55.2259 155.66 53.0417V39.6636C155.66 37.4795 157.492 35.7109 159.754 35.7109H173.607C175.869 35.7109 177.701 37.4795 177.701 39.6636V53.0417C177.701 55.2259 175.869 56.9945 173.607 56.9945Z" fill="white"/>
</mask>
<g mask="url(#mask7_9_265)">
<path d="M2.82727 20.982H216.737V117.116H2.82727V20.982Z" fill="white"/>
</g>
</g>
</svg>
