<svg width="543" height="353" viewBox="0 0 543 353" fill="none" xmlns="http://www.w3.org/2000/svg">
<mask id="mask0_8_5" style="mask-type:luminance" maskUnits="userSpaceOnUse" x="33" y="81" width="220" height="193">
<path d="M33.4734 81.4739H252.723V273.333H33.4734V81.4739Z" fill="white"/>
</mask>
<g mask="url(#mask0_8_5)">
<mask id="mask1_8_5" style="mask-type:luminance" maskUnits="userSpaceOnUse" x="33" y="81" width="220" height="192">
<path d="M84.2494 106.125C76.3796 106.125 68.5619 109.635 63.4057 116.391C59.1504 121.917 57.3432 128.833 58.2442 135.745C59.1504 142.661 62.765 148.828 68.2963 153.083L185.828 242.958C191.359 247.213 198.275 249.078 205.187 248.12C212.098 247.161 218.27 243.651 222.525 238.068C231.296 226.578 229.119 210.146 217.63 201.37L100.098 111.495C95.3692 107.88 89.7807 106.125 84.2494 106.125ZM201.676 272.797C190.614 272.797 179.926 269.177 171.046 262.37L53.4577 172.495C42.7182 164.307 35.8015 152.391 34.0463 138.989C32.2911 125.588 35.8015 112.292 43.9942 101.552C60.9577 79.3749 92.8119 75.1197 114.989 92.0832L232.52 181.963C254.697 198.927 258.953 230.781 241.989 252.958C233.796 263.703 221.885 270.614 208.484 272.37C206.197 272.687 203.963 272.797 201.676 272.797Z" fill="white"/>
</mask>
<g mask="url(#mask1_8_5)">
<path d="M6.97852 53.6353H534.947V299.38H6.97852V53.6353Z" fill="#221F1F"/>
</g>
</g>
<mask id="mask2_8_5" style="mask-type:luminance" maskUnits="userSpaceOnUse" x="158" y="80" width="221" height="193">
<path d="M158.65 80.5105H378.479V272.5H158.65V80.5105Z" fill="white"/>
</mask>
<g mask="url(#mask2_8_5)">
<mask id="mask3_8_5" style="mask-type:luminance" maskUnits="userSpaceOnUse" x="158" y="80" width="220" height="193">
<path d="M209.39 105.432C201.515 105.432 193.697 108.943 188.541 115.698C184.286 121.229 182.479 128.141 183.38 135.057C184.286 141.969 187.9 148.136 193.432 152.391L310.963 242.271C316.494 246.521 323.354 248.386 330.322 247.427C337.291 246.469 343.406 242.959 347.661 237.375C356.437 225.891 354.255 209.459 342.765 200.682L225.234 110.802C220.505 107.188 214.921 105.432 209.39 105.432ZM326.812 272.104C315.749 272.104 305.062 268.49 296.182 261.682L178.65 171.802C167.906 163.615 160.994 151.703 159.239 138.297C157.484 124.896 160.994 111.604 169.182 100.86C186.145 78.6825 218.005 74.4273 240.182 91.3908L357.713 181.271C379.89 198.235 384.14 230.089 367.176 252.266C358.989 263.011 347.072 269.922 333.671 271.677C331.385 271.995 329.15 272.104 326.864 272.104" fill="white"/>
</mask>
<g mask="url(#mask3_8_5)">
<path d="M6.97852 53.6355H534.947V299.38H6.97852V53.6355Z" fill="#221F1F"/>
</g>
</g>
<mask id="mask4_8_5" style="mask-type:luminance" maskUnits="userSpaceOnUse" x="289" y="80" width="220" height="192">
<path d="M289.203 80H508.14V271.542H289.203V80Z" fill="white"/>
</mask>
<g mask="url(#mask4_8_5)">
<mask id="mask5_8_5" style="mask-type:luminance" maskUnits="userSpaceOnUse" x="289" y="80" width="220" height="192">
<path d="M488.218 180.526L452.374 153.083C451.046 157.125 447.27 159.995 442.801 159.995H421.156L473.38 199.937C484.869 208.714 487.046 225.146 478.275 236.63C474.02 242.214 467.848 245.781 460.937 246.682C454.02 247.589 447.109 245.781 441.577 241.526L324.046 151.646C318.515 147.391 314.952 141.224 313.994 134.312C313.041 127.396 314.9 120.484 319.156 114.953C323.411 109.422 329.577 105.859 336.494 104.901C337.661 104.74 338.833 104.687 339.999 104.687C345.692 104.687 351.223 106.552 355.848 110.057L369.89 120.802V90.0625C359.307 82.2448 346.333 78.8958 333.249 80.651C319.848 82.4583 307.932 89.3698 299.744 100.062C291.551 110.75 287.989 124.099 289.796 137.5C291.609 150.901 298.468 162.818 309.208 171.005L426.739 260.88C435.676 267.688 446.364 271.307 457.374 271.307C459.661 271.307 461.895 271.146 464.182 270.88C477.583 269.073 489.494 262.214 497.687 251.469C514.65 229.292 510.395 197.437 488.218 180.474" fill="white"/>
</mask>
<g mask="url(#mask5_8_5)">
<path d="M6.97852 53.6355H534.947V299.38H6.97852V53.6355Z" fill="#221F1F"/>
</g>
</g>
<mask id="mask6_8_5" style="mask-type:luminance" maskUnits="userSpaceOnUse" x="384" y="91" width="55" height="55">
<path d="M384.14 91.073H438.807V145.787H384.14V91.073Z" fill="white"/>
</mask>
<g mask="url(#mask6_8_5)">
<mask id="mask7_8_5" style="mask-type:luminance" maskUnits="userSpaceOnUse" x="384" y="91" width="55" height="55">
<path d="M428.494 145.693H394.301C388.718 145.693 384.197 141.172 384.197 135.589V101.391C384.197 95.8075 388.718 91.2866 394.301 91.2866H428.494C434.078 91.2866 438.598 95.8075 438.598 101.391V135.589C438.598 141.172 434.078 145.693 428.494 145.693Z" fill="white"/>
</mask>
<g mask="url(#mask7_8_5)">
<path d="M6.97852 53.6355H534.947V299.38H6.97852V53.6355Z" fill="#3D54A4"/>
</g>
</g>
</svg>
